<svg xmlns="http://www.w3.org/2000/svg" width="205.821" height="65.998" viewBox="0 0 205.821 65.998">
  <g id="Group_222" data-name="Group 222" transform="translate(-554 -3336.949)">
    <g id="Group_51" data-name="Group 51" transform="translate(554 3336.949)">
      <g id="Group_1" data-name="Group 1" transform="translate(0 35.664)">
        <path id="Path_1" data-name="Path 1" d="M124.052,317.791a21.668,21.668,0,0,1-5.693-6.233,23.51,23.51,0,0,0-.622,4.234c7.838,8.394,17.584,8.817,21.639,8.909a40.544,40.544,0,0,0,9.57-1.145l-1.534.169C138.554,324.7,130.07,322.478,124.052,317.791Z" transform="translate(-114.966 -311.558)" fill="#fff"/>
        <path id="Path_2" data-name="Path 2" d="M258.662,320.5l-.027-.374a14.783,14.783,0,0,1-2.757,3.466l-.051.05a16.6,16.6,0,0,1-1.057,4.414c1.807-.534,3.44-1.149,3.44-1.149l.013-.05A20.355,20.355,0,0,0,258.662,320.5Z" transform="translate(-210.374 -317.743)" fill="#fff"/>
        <path id="Path_3" data-name="Path 3" d="M110.92,319.545V319.5l-.034-.037a16.45,16.45,0,0,1-1.995-2.6l-.256-.413-.009.474c-.051,2.634-.079,9.509,5.012,14.624,1.011,1.212,2.784,1.6,5,2.146.352.087.711.177,1.077.274l.81.216-.688-.445C115.472,330.909,110.835,325.7,110.92,319.545Z" transform="translate(-108.619 -315.088)" fill="#fff"/>
        <path id="Path_4" data-name="Path 4" d="M225.691,347.773s2.656-.173,3.89-.317l.054-.01.031-.039c.219-.269,1.087-1.734,1.146-1.878A26.743,26.743,0,0,1,225.691,347.773Z" transform="translate(-190.128 -336.079)" fill="#fff"/>
      </g>
      <g id="Group_2" data-name="Group 2" transform="translate(23.415 3.92)">
        <path id="Path_5" data-name="Path 5" d="M235.891,210.939l.034-.876a21.66,21.66,0,0,1,3.348-10.7c.263-.376.672-1.04.5-1.549a.567.567,0,0,0-.349-.364l-.031-.007h-.045c-.644,0-1.427.787-2.392,2.4h0a14.759,14.759,0,0,0-1.224,10.336Z" transform="translate(-220.256 -197.439)" fill="#fff"/>
        <path id="Path_6" data-name="Path 6" d="M239.043,269.158a50.188,50.188,0,0,0,2.31,11.989l.068-.172c.15-.386,1.121-2.6,1.121-2.6a58.8,58.8,0,0,1-3.309-8.542S239.118,269.4,239.043,269.158Z" transform="translate(-222.839 -249.208)" fill="#fff"/>
        <path id="Path_7" data-name="Path 7" d="M246.912,314.882a19.916,19.916,0,0,0,2.932-2.262l.021-.023,0-.031a18.926,18.926,0,0,0-1.548-7.461l-.089-.224-.089.224c-.125.317-1.122,2.969-1.122,2.969A15.611,15.611,0,0,1,246.912,314.882Z" transform="translate(-228.317 -274.994)" fill="#fff"/>
        <path id="Path_8" data-name="Path 8" d="M243.678,336.751a19.576,19.576,0,0,1-1.245,2.532,30.05,30.05,0,0,0,3.184-.747l.035-.014.014-.032a17.721,17.721,0,0,0,1.07-4.107A20.282,20.282,0,0,1,243.678,336.751Z" transform="translate(-225.199 -296.289)" fill="#fff"/>
        <path id="Path_9" data-name="Path 9" d="M202.814,351.364l-.04.009-.02.032a25.329,25.329,0,0,1-5.1,6.154A20.285,20.285,0,0,1,185.7,362.13a22.044,22.044,0,0,0,5.043-.028c5.96-.873,8.626-2.742,11.685-5.828a22.447,22.447,0,0,0,3.52-5.444l.081-.169S204.943,350.978,202.814,351.364Z" transform="translate(-185.699 -308.04)" fill="#fff"/>
      </g>
      <g id="Group_3" data-name="Group 3" transform="translate(0.147 28.825)">
        <path id="Path_10" data-name="Path 10" d="M111.924,292.882a38.527,38.527,0,0,1-1.826-5.25l-.135-.659-.143.658a26,26,0,0,0-.715,5.968l.008.041a15.9,15.9,0,0,0,1.905,3.447l.23.325.03-.386A38.463,38.463,0,0,1,111.924,292.882Z" transform="translate(-109.101 -286.973)" fill="#fff"/>
        <path id="Path_11" data-name="Path 11" d="M231.7,325.253l.034-.023.015-.036a13.055,13.055,0,0,0,.955-6.448l-.057-.534-.215.5a37.208,37.208,0,0,1-5.7,8.844A29.454,29.454,0,0,0,231.7,325.253Z" transform="translate(-190.998 -309.523)" fill="#fff"/>
        <path id="Path_12" data-name="Path 12" d="M127.958,342.7a12.829,12.829,0,0,0,2,.935c.16.009.838,0,1-.015,7.241-.242,13.528-2.778,17.246-6.959l.254-.286-.393.077c-5.21,1.022-12.919,1.694-20.047-.906-4.481-1.794-7.893-4.011-10.14-6.59l-.268-.307.016.393a12.588,12.588,0,0,0,1.266,4.517,1.766,1.766,0,0,0,.076.171C121.1,338.239,125.017,341.069,127.958,342.7Z" transform="translate(-115.032 -317.055)" fill="#fff"/>
        <path id="Path_13" data-name="Path 13" d="M169.874,347.081l-.072.019-.024.065A18.07,18.07,0,0,1,158.1,358.3c-4,1.334-8.675,1.334-13.894-.041a38.984,38.984,0,0,1-5.439-1.989c-1.361-.226-5.241-1.134-5.876-1.368,10.991,9.841,35.282,9.075,40.267-8.739l.062-.19A34.817,34.817,0,0,1,169.874,347.081Z" transform="translate(-125.661 -329.562)" fill="#fff"/>
        <path id="Path_14" data-name="Path 14" d="M160.748,362.053l-.449,0a12.614,12.614,0,0,0,2.2.864,19.023,19.023,0,0,0,4.642.929,12.824,12.824,0,0,0,1.748-.017c5.71-.374,11.429-4.162,14.9-9.939l.133-.215s-1.437.189-3.982.318l-.063,0-.039.045C175.433,359.125,167.937,362.272,160.748,362.053Z" transform="translate(-144.747 -335.117)" fill="#fff"/>
      </g>
      <path id="Path_15" data-name="Path 15" d="M162.538,184l.248-.179-.593-.1a16.21,16.21,0,0,0-4.556-.31l-.045.013c-3.8,1.726-6.772,4.358-7.956,7.55-2.659,7.171-.8,13.129-.3,15.666.9,4.41,1.6,9.054-.566,13.125-1.687,3.751-6.443,7.466-11.489,7.2h-.013c-7.5-.431-12.528-4.565-14.18-8.474-1.86-3.868-2.749-8.34-1.571-12.479,1.1-3.854,2.678-7.614.479-11.408a8.685,8.685,0,0,0-5.084-3.784c-.084-.026-.372-.105-.526-.146,0,.289.442.7.767.861a6.876,6.876,0,0,1,2.754,2.849c1.2,2.639-.358,5.891-1.495,8.388a17.486,17.486,0,0,0-1.677,10.863c.094.466.425,2.058.71,2.97l.117.373.152-.363a16.64,16.64,0,0,1,1.951-3.873,27.926,27.926,0,0,0-1.869,4.7l-.016.044.019.044c.876,2.455,3.465,5.324,5.3,6.811a30.14,30.14,0,0,0,17.845,6.57,51.393,51.393,0,0,0,7.19-.191l.056-.005.037-.039a42.488,42.488,0,0,0,7.4-10.941l.015-.031,0-.034c-.265-.976-1.2-4.737-1.4-5.763a35.032,35.032,0,0,1-.783-7.994,72.687,72.687,0,0,0,3.869,10.159s1.063-2.393,1.39-2.908a14.972,14.972,0,0,1-.771,2.27c-.146.367-.421,1.163-.421,1.163l.017.041a23.179,23.179,0,0,1,1.942,7.489l.019.313.228-.234a30.19,30.19,0,0,0,2.468-2.886l.053-.084,0-.044c-.2-3.922-1.615-7.939-4.269-12.378-3.059-5.013-3.74-10.846-1.823-15.605A18.637,18.637,0,0,1,162.538,184Zm-9.331,17.549a16.391,16.391,0,0,1-.688-8.4c.632-3.639,2.925-6.2,4.072-6.2a.69.69,0,0,1,.718.46c.2.647-.173,1.139-.768,2.187A24.817,24.817,0,0,0,153.207,201.544Z" transform="translate(-114.027 -183.347)" fill="#fff"/>
      <g id="Group_4" data-name="Group 4" transform="translate(58.291 16.143)">
        <path id="Path_16" data-name="Path 16" d="M305.808,242.225a.379.379,0,0,1,.365-.257h.842a.378.378,0,0,1,.365.257l5.167,11.613a.4.4,0,0,1,.037.138c0,.137-.121.214-.281.214h-1.217a.348.348,0,0,1-.337-.249l-1.02-2.34h-6.271l-1.011,2.34a.359.359,0,0,1-.346.249h-1.31c-.178,0-.281-.068-.281-.206a.261.261,0,0,1,.038-.146Zm3.239,7.8-2.434-5.623-2.49,5.623Z" transform="translate(-300.51 -241.805)" fill="#fff"/>
        <path id="Path_17" data-name="Path 17" d="M343.149,242.285a.291.291,0,0,1,.309-.317h1.123c.2,0,.3.1.3.317V252.7h6.571c.234,0,.356.095.356.283v.917c0,.2-.131.292-.356.292h-7.993c-.206,0-.309-.095-.309-.292Z" transform="translate(-330.197 -241.805)" fill="#fff"/>
        <path id="Path_18" data-name="Path 18" d="M389.651,242.251q0-.283.309-.283h4.278a7.23,7.23,0,0,1,3.444.831,6.621,6.621,0,0,1,2.49,2.246,5.577,5.577,0,0,1,.009,6.086,6.4,6.4,0,0,1-2.453,2.228,7.125,7.125,0,0,1-3.426.832H389.96c-.206,0-.309-.095-.309-.292Zm4.446,1.208h-2.705v9.24H394.1c2.9.043,5.288-2.1,5.232-4.611C399.385,245.576,397,243.416,394.1,243.459Z" transform="translate(-362.573 -241.805)" fill="#fff"/>
        <path id="Path_19" data-name="Path 19" d="M431.151,244.51a6.647,6.647,0,0,1,2.509-2.288,7.427,7.427,0,0,1,6.861,0A6.637,6.637,0,0,1,443,244.51a5.782,5.782,0,0,1,.908,3.154A5.7,5.7,0,0,1,443,250.8a6.519,6.519,0,0,1-2.481,2.271,7.422,7.422,0,0,1-6.861,0,6.53,6.53,0,0,1-2.509-2.271,5.642,5.642,0,0,1-.926-3.137A5.72,5.72,0,0,1,431.151,244.51Zm5.944,7.86a4.73,4.73,0,1,0,0-9.437,4.734,4.734,0,1,0,0,9.437Z" transform="translate(-390.821 -241.382)" fill="#fff"/>
        <path id="Path_20" data-name="Path 20" d="M481.4,249.247a3.652,3.652,0,0,0,3.856,3.574,3.506,3.506,0,0,0,3.66-3.574v-7a.287.287,0,0,1,.318-.309h1.1a.309.309,0,0,1,.328.309v7.114c.037,3.1-2.377,5.031-5.4,5.006-3.042.035-5.644-1.946-5.6-5.048v-7.08a.284.284,0,0,1,.3-.3H481.1a.267.267,0,0,1,.3.3Z" transform="translate(-425.237 -241.782)" fill="#fff"/>
        <path id="Path_21" data-name="Path 21" d="M524.052,249.734v4.14c0,.2-.1.292-.309.292H522.62a.262.262,0,0,1-.3-.292V242.217c0-.188.1-.283.3-.283h5.448a4.008,4.008,0,0,1,4.1,3.943,3.937,3.937,0,0,1-2.406,3.472l2.368,4.474a.22.22,0,0,1,.028.112.236.236,0,0,1-.253.231h-1.273c-.15,0-.243-.06-.346-.24l-2.153-4.209Zm0-1.586h3.65c1.572,0,2.686-.908,2.686-2.3A2.426,2.426,0,0,0,527.7,243.5h-3.65Z" transform="translate(-454.941 -241.78)" fill="#fff"/>
        <path id="Path_22" data-name="Path 22" d="M560.012,242.245a.281.281,0,0,1,.309-.309h1.123a.273.273,0,0,1,.309.309V253.85a.276.276,0,0,1-.309.317h-1.123a.276.276,0,0,1-.309-.317Z" transform="translate(-481.183 -241.782)" fill="#fff"/>
        <path id="Path_23" data-name="Path 23" d="M595.965,251.689v-3c0-.206.1-.309.318-.309h1.039a.273.273,0,0,1,.309.309v3.685a.356.356,0,0,1-.169.326,7.428,7.428,0,0,1-4.184,1.243,7.263,7.263,0,0,1-3.444-.84,6.586,6.586,0,0,1-2.518-2.28,5.83,5.83,0,0,1,0-6.308,6.51,6.51,0,0,1,2.5-2.272,7.23,7.23,0,0,1,3.444-.831,6.839,6.839,0,0,1,4.119,1.3.318.318,0,0,1,.159.249.227.227,0,0,1-.056.154l-.618.814a.252.252,0,0,1-.225.1.4.4,0,0,1-.234-.077,5.332,5.332,0,0,0-3.126-1,4.741,4.741,0,1,0-.066,9.454A5.133,5.133,0,0,0,595.965,251.689Z" transform="translate(-499.547 -241.404)" fill="#fff"/>
        <path id="Path_24" data-name="Path 24" d="M630.747,249.734v4.14c0,.2-.1.292-.309.292h-1.123a.262.262,0,0,1-.3-.292V242.217c0-.188.1-.283.3-.283h5.448a4.008,4.008,0,0,1,4.1,3.943,3.937,3.937,0,0,1-2.406,3.472l2.368,4.474a.216.216,0,0,1,.029.112.236.236,0,0,1-.253.231h-1.273c-.15,0-.244-.06-.347-.24l-2.153-4.209Zm0-1.586H634.4c1.572,0,2.686-.908,2.686-2.3A2.426,2.426,0,0,0,634.4,243.5h-3.651Z" transform="translate(-529.225 -241.78)" fill="#fff"/>
        <path id="Path_25" data-name="Path 25" d="M665.265,244.51a6.647,6.647,0,0,1,2.508-2.288,7.427,7.427,0,0,1,6.861,0,6.635,6.635,0,0,1,2.481,2.288,5.782,5.782,0,0,1,.908,3.154,5.7,5.7,0,0,1-.908,3.137,6.516,6.516,0,0,1-2.481,2.271,7.422,7.422,0,0,1-6.861,0,6.529,6.529,0,0,1-2.508-2.271,5.64,5.64,0,0,1-.927-3.137A5.718,5.718,0,0,1,665.265,244.51Zm5.944,7.86a4.73,4.73,0,1,0,0-9.437,4.734,4.734,0,1,0,0,9.437Z" transform="translate(-553.818 -241.382)" fill="#fff"/>
        <path id="Path_26" data-name="Path 26" d="M715.51,249.247a3.652,3.652,0,0,0,3.856,3.574,3.506,3.506,0,0,0,3.66-3.574v-7a.287.287,0,0,1,.318-.309h1.1a.309.309,0,0,1,.327.309v7.114c.037,3.1-2.377,5.031-5.4,5.006-3.042.035-5.644-1.946-5.6-5.048v-7.08a.284.284,0,0,1,.3-.3h1.142a.267.267,0,0,1,.3.3Z" transform="translate(-588.233 -241.782)" fill="#fff"/>
        <path id="Path_27" data-name="Path 27" d="M756.434,242.216q0-.282.309-.283h4.83a4,4,0,0,1,3.894,3.9,3.8,3.8,0,0,1-3.847,3.694h-3.454v4.328a.273.273,0,0,1-.309.309h-1.114a.273.273,0,0,1-.309-.309Zm1.732,5.752h3.117a2.24,2.24,0,0,0,2.443-2.186,2.322,2.322,0,0,0-2.443-2.288h-3.117Z" transform="translate(-617.938 -241.779)" fill="#fff"/>
      </g>
      <g id="Group_5" data-name="Group 5" transform="translate(58.132 31.689)">
        <path id="Path_28" data-name="Path 28" d="M312.909,318.472a3.046,3.046,0,0,0-2.275.868,3.8,3.8,0,0,0-.853,2.748v1.736h5.212A1.441,1.441,0,0,1,316,324.2a1.205,1.205,0,0,1,.411.926v1.446a4.642,4.642,0,0,1-.427,1.967,5.035,5.035,0,0,1-1.184,1.62,5.55,5.55,0,0,1-1.769,1.085,5.909,5.909,0,0,1-2.148.391h-5.37a5.907,5.907,0,0,1-2.148-.391,5.547,5.547,0,0,1-1.769-1.085,5.027,5.027,0,0,1-1.185-1.62,4.641,4.641,0,0,1-.427-1.967V323.1h1.58v3.471a3.172,3.172,0,0,0,.316,1.4,3.764,3.764,0,0,0,.853,1.143,4.14,4.14,0,0,0,1.248.781,4.028,4.028,0,0,0,1.532.289h5.37a4.169,4.169,0,0,0,2.78-1.07,3.758,3.758,0,0,0,.853-1.143,3.167,3.167,0,0,0,.316-1.4v-1.3h-5.212a1.441,1.441,0,0,1-1.011-.376,1.206,1.206,0,0,1-.41-.926v-1.88a5.094,5.094,0,0,1,1.279-3.847,4.772,4.772,0,0,1,3.428-1.215,9.074,9.074,0,0,1,1.532.145,17.059,17.059,0,0,1,1.753.4l-.474,1.389A11.172,11.172,0,0,0,312.909,318.472Zm-5.244,15.818-1.106.911-1.579-1.276,1.137-.937Zm3.791,0-1.105.911-1.58-1.276,1.137-.937Z" transform="translate(-299.988 -311.53)" fill="#fff"/>
        <path id="Path_29" data-name="Path 29" d="M360.324,332.441a2.9,2.9,0,0,0,1.832-.564,2.256,2.256,0,0,0,.727-1.895v-9.836h1.579v9.836a3.7,3.7,0,0,1-1.09,2.994,4.36,4.36,0,0,1-2.891.911q-.379,0-.758-.029a7.136,7.136,0,0,1-.821-.116l.379-1.389A6.148,6.148,0,0,0,360.324,332.441Z" transform="translate(-341.006 -313.782)" fill="#fff"/>
        <path id="Path_30" data-name="Path 30" d="M395.026,329.258a3.042,3.042,0,0,1-2.132-.8,2.546,2.546,0,0,1-.869-1.953v-1.591a5.479,5.479,0,0,1,.379-2.141,4.167,4.167,0,0,1,1.011-1.476,4.121,4.121,0,0,1,1.5-.868,5.717,5.717,0,0,1,1.817-.289,7.281,7.281,0,0,1,2.117.347,12.162,12.162,0,0,1,2.337,1.013v8.042a5.363,5.363,0,0,1-.348,2.054,3.371,3.371,0,0,1-.963,1.345,3.741,3.741,0,0,1-1.438.723,6.908,6.908,0,0,1-1.769.217,10.9,10.9,0,0,1-2.18-.231,22.418,22.418,0,0,1-2.243-.578c.021-.039.058-.121.111-.246s.105-.255.158-.39.105-.265.158-.391.089-.207.111-.246q.884.261,1.848.463a9.009,9.009,0,0,0,1.848.2,5,5,0,0,0,1.232-.145,2.671,2.671,0,0,0,1-.477,2.185,2.185,0,0,0,.663-.9,3.634,3.634,0,0,0,.237-1.4v-.289Zm4.581-6.943a6.694,6.694,0,0,0-2.875-.723,2.986,2.986,0,0,0-3.128,3.327v1.591a1.205,1.205,0,0,0,.411.926,1.441,1.441,0,0,0,1.011.376h4.581Z" transform="translate(-364.067 -313.782)" fill="#fff"/>
        <path id="Path_31" data-name="Path 31" d="M440,320.943a4.633,4.633,0,0,0-1.974-.391,8.323,8.323,0,0,0-1.437.13,7.283,7.283,0,0,0-1.406.391l-.316-1.36a6.734,6.734,0,0,1,1.564-.463,9.9,9.9,0,0,1,1.69-.145,7.418,7.418,0,0,1,1.627.174,4.176,4.176,0,0,1,1.358.55,3.057,3.057,0,0,1,.948.955,2.505,2.505,0,0,1,.363,1.36v4.918H445.1v1.446H433.884v-1.446h6.95v-4.918A1.27,1.27,0,0,0,440,320.943Z" transform="translate(-393.21 -313.031)" fill="#fff"/>
        <path id="Path_32" data-name="Path 32" d="M473.21,297.267v15.477h-4.738a.809.809,0,0,1-.569-.2.724.724,0,0,1,0-1.041.81.81,0,0,1,.569-.2h3.159v-14.03Z" transform="translate(-416.741 -297.267)" fill="#fff"/>
        <path id="Path_33" data-name="Path 33" d="M502.8,312.743h-1.58V297.267h1.58Z" transform="translate(-440.093 -297.267)" fill="#fff"/>
        <path id="Path_34" data-name="Path 34" d="M526.427,311.093a6.671,6.671,0,0,1,1.453-1.895,7.81,7.81,0,0,1,2.322-1.461,8.037,8.037,0,0,1,3.143-.579H535.4v7.666h2.685v1.446H529.87a5.534,5.534,0,0,1-1.817-.26,3.48,3.48,0,0,1-1.216-.694,2.6,2.6,0,0,1-.7-1.041,3.777,3.777,0,0,1-.221-1.3A4.242,4.242,0,0,1,526.427,311.093Zm1.611,3.182a2.5,2.5,0,0,0,1.832.55h3.949v-6.22h-.474a6.663,6.663,0,0,0-2.48.434,6.254,6.254,0,0,0-1.832,1.085,4.844,4.844,0,0,0-1.137,1.417,3.15,3.15,0,0,0-.4,1.432A1.8,1.8,0,0,0,528.038,314.275ZM531.86,303.6l-1.105,1.012-1.58-1.418,1.137-1.041Zm3.791,0-1.106,1.012-1.579-1.418,1.137-1.041Z" transform="translate(-457.289 -300.795)" fill="#fff"/>
        <path id="Path_35" data-name="Path 35" d="M563.06,326.513a.809.809,0,0,1,.568-.2h4.834a6.783,6.783,0,0,1-1.927-2.213,5.211,5.211,0,0,1-.695-2.473,3.762,3.762,0,0,1,.253-1.374,3.021,3.021,0,0,1,.79-1.142,3.725,3.725,0,0,1,1.375-.767,6.354,6.354,0,0,1,1.974-.275,6.861,6.861,0,0,1,2.038.318,7.556,7.556,0,0,1,1.943.926l-.411,1.3a7.023,7.023,0,0,0-1.722-.8,6.225,6.225,0,0,0-1.88-.3,3.058,3.058,0,0,0-2.148.607,2,2,0,0,0-.632,1.5,3.619,3.619,0,0,0,.332,1.432,5.668,5.668,0,0,0,.916,1.446,6.083,6.083,0,0,0,1.358,1.172,4.383,4.383,0,0,0,1.627.637h3.033v1.446H563.629a.808.808,0,0,1-.568-.2.723.723,0,0,1,0-1.041Z" transform="translate(-482.992 -312.28)" fill="#fff"/>
        <path id="Path_36" data-name="Path 36" d="M617.579,329.258a3.043,3.043,0,0,1-2.133-.8,2.546,2.546,0,0,1-.868-1.953v-1.591a5.486,5.486,0,0,1,.379-2.141,4.172,4.172,0,0,1,1.011-1.476,4.119,4.119,0,0,1,1.5-.868,5.715,5.715,0,0,1,1.817-.289,7.277,7.277,0,0,1,2.117.347,12.163,12.163,0,0,1,2.338,1.013v6.307h2.369v1.446h-2.369v.289a5.363,5.363,0,0,1-.348,2.054,3.369,3.369,0,0,1-.963,1.345,3.737,3.737,0,0,1-1.437.723,6.907,6.907,0,0,1-1.769.217,10.9,10.9,0,0,1-2.18-.231,22.418,22.418,0,0,1-2.243-.578c.022-.039.058-.121.111-.246s.105-.255.158-.39.105-.265.158-.391.089-.207.111-.246q.884.261,1.848.463a9.009,9.009,0,0,0,1.848.2,4.993,4.993,0,0,0,1.232-.145,2.667,2.667,0,0,0,1-.477,2.185,2.185,0,0,0,.663-.9,3.635,3.635,0,0,0,.237-1.4v-.289Zm4.581-6.943a6.694,6.694,0,0,0-2.875-.723,2.986,2.986,0,0,0-3.128,3.327v1.591a1.205,1.205,0,0,0,.411.926,1.441,1.441,0,0,0,1.011.376h4.581Z" transform="translate(-519.015 -313.782)" fill="#fff"/>
        <path id="Path_37" data-name="Path 37" d="M649.636,331.768a.81.81,0,0,1,.569-.2h2.527v-2.083a4.358,4.358,0,0,1,.363-1.851,3.53,3.53,0,0,1,1-1.287,4.227,4.227,0,0,1,1.469-.752,6.194,6.194,0,0,1,1.753-.246,6.031,6.031,0,0,1,1.738.246,4.242,4.242,0,0,1,1.453.752,3.676,3.676,0,0,1,1.011,1.287,4.2,4.2,0,0,1,.379,1.851v2.083h2.369v1.446h-2.717a3.678,3.678,0,0,1-1.722,1.62,5.756,5.756,0,0,1-2.511.55,5.832,5.832,0,0,1-2.543-.55,3.679,3.679,0,0,1-1.722-1.62h-2.843a.809.809,0,0,1-.569-.2.723.723,0,0,1,0-1.041Zm5.576,1.389a4.1,4.1,0,0,0,4.2,0,1.927,1.927,0,0,0,.9-1.736v-1.938a2.347,2.347,0,0,0-.9-2.039,3.716,3.716,0,0,0-4.2,0,2.346,2.346,0,0,0-.9,2.039v1.938A1.926,1.926,0,0,0,655.212,333.157Z" transform="translate(-543.269 -317.535)" fill="#fff"/>
        <path id="Path_38" data-name="Path 38" d="M711.286,329.258H695.964a.808.808,0,0,1-.569-.2.723.723,0,0,1,0-1.041.81.81,0,0,1,.569-.2h10.8a7.047,7.047,0,0,1-1.706-1.736q-.726-1.041-1.406-2.04a11.091,11.091,0,0,0-1.406-1.707,2.363,2.363,0,0,0-1.706-.709,3.894,3.894,0,0,0-2.148.839l-.821-1.186a10.407,10.407,0,0,1,1.484-.81,3.82,3.82,0,0,1,1.548-.318,3.52,3.52,0,0,1,1.99.564,6.9,6.9,0,0,1,1.548,1.417,15.925,15.925,0,0,1,1.295,1.852,18.818,18.818,0,0,0,1.264,1.851,7.005,7.005,0,0,0,1.453,1.417,3.123,3.123,0,0,0,1.864.564h1.263Zm-5.591,3.24-1.106,1.013-1.579-1.418,1.137-1.041Z" transform="translate(-575.128 -313.782)" fill="#fff"/>
        <path id="Path_39" data-name="Path 39" d="M745.315,331.309a.723.723,0,0,1,0-1.041.809.809,0,0,1,.568-.2h2.527v-3.182a3.025,3.025,0,0,1,.395-1.548,3.5,3.5,0,0,1,1.074-1.143,5.023,5.023,0,0,1,1.548-.694,7.023,7.023,0,0,1,1.817-.231,7.757,7.757,0,0,1,2.275.347,6.518,6.518,0,0,1,2.053,1.041v4.339a3.509,3.509,0,0,1-.363,1.649,3.257,3.257,0,0,1-.979,1.143,4.317,4.317,0,0,1-1.39.665,6,6,0,0,1-1.627.217,7.493,7.493,0,0,1-2.038-.289,6.02,6.02,0,0,1-1.848-.868h-3.444A.808.808,0,0,1,745.315,331.309Zm6.334-.289a6.667,6.667,0,0,0,1.564.2,4.16,4.16,0,0,0,1.042-.13,2.591,2.591,0,0,0,.885-.4,2.153,2.153,0,0,0,.616-.694,2,2,0,0,0,.237-1v-3.616a6.193,6.193,0,0,0-2.748-.665,5.238,5.238,0,0,0-1.232.145,3.529,3.529,0,0,0-1.042.419,2.29,2.29,0,0,0-.711.68,1.638,1.638,0,0,0-.268.926V330.3A5.528,5.528,0,0,0,751.649,331.019Z" transform="translate(-609.884 -316.035)" fill="#fff"/>
      </g>
      <g id="Group_7" data-name="Group 7" transform="translate(14.517 61.791)">
        <g id="Group_6" data-name="Group 6" transform="translate(0 0)">
          <path id="Path_40" data-name="Path 40" d="M156.411,407.329a.067.067,0,0,1,.039-.037l.211-.083a.071.071,0,0,1,.046,0,.1.1,0,0,1,.057.056,1.138,1.138,0,0,0,.254.336.965.965,0,0,0,.38.218c.287.089.713.056.812-.249a.259.259,0,0,0-.024-.234.744.744,0,0,0-.183-.2c-.076-.056-.172-.121-.286-.19l-.091-.056c-.561-.353-.735-.58-.61-.958s.6-.562,1.176-.381a1.262,1.262,0,0,1,.452.244,1.235,1.235,0,0,1,.309.384.089.089,0,0,1,.008.063.074.074,0,0,1-.043.041l-.186.085a.083.083,0,0,1-.048,0c-.025-.008-.044-.027-.066-.065a1.019,1.019,0,0,0-.539-.448c-.261-.079-.6-.08-.692.181a.35.35,0,0,0,.172.4,3.472,3.472,0,0,0,.293.2,4.942,4.942,0,0,1,.454.319.943.943,0,0,1,.257.316.5.5,0,0,1,.009.4c-.166.483-.746.626-1.331.443a1.3,1.3,0,0,1-.478-.272,1.325,1.325,0,0,1-.338-.444A.107.107,0,0,1,156.411,407.329Z" transform="translate(-156.409 -405.484)" fill="#fff"/>
          <path id="Path_41" data-name="Path 41" d="M165.5,407.463a.063.063,0,0,1,.083-.048l.234.059a.056.056,0,0,1,.045.08l-.724,2.419a.063.063,0,0,1-.084.05l-.234-.059a.057.057,0,0,1-.045-.082Z" transform="translate(-162.228 -406.876)" fill="#fff"/>
          <path id="Path_42" data-name="Path 42" d="M168.891,410.89a.064.064,0,0,1-.085.054l-.221-.042a.058.058,0,0,1-.052-.08l.559-2.463a.065.065,0,0,1,.081-.049l.26.049a.117.117,0,0,1,.08.07l1.171,2.276.444-1.959a.064.064,0,0,1,.083-.049l.221.042a.063.063,0,0,1,.056.075l-.558,2.462a.065.065,0,0,1-.085.054l-.238-.045a.108.108,0,0,1-.08-.068l-1.177-2.351Z" transform="translate(-164.848 -407.523)" fill="#fff"/>
          <path id="Path_43" data-name="Path 43" d="M181.354,412.708a.064.064,0,0,1,.042.024l.112.192a.066.066,0,0,1,.013.043c0,.017-.016.034-.043.05a1.5,1.5,0,0,1-.913.2,1.555,1.555,0,0,1-.722-.253,1.379,1.379,0,0,1-.482-.543,1.208,1.208,0,0,1-.122-.7,1.256,1.256,0,0,1,.279-.659,1.467,1.467,0,0,1,.6-.436,1.593,1.593,0,0,1,.764-.106,1.482,1.482,0,0,1,.851.369.062.062,0,0,1,.026.056.047.047,0,0,1-.012.029l-.162.171a.066.066,0,0,1-.051.016.085.085,0,0,1-.05-.024,1.106,1.106,0,0,0-.641-.285,1.087,1.087,0,0,0-1.229.905,1.043,1.043,0,0,0,.993,1.125,1.152,1.152,0,0,0,.688-.153A.1.1,0,0,1,181.354,412.708Z" transform="translate(-172.298 -409.111)" fill="#fff"/>
          <path id="Path_44" data-name="Path 44" d="M188.781,411.064c0-.041.023-.061.068-.06l1.906.022c.049,0,.073.021.073.062l0,.223c0,.043-.025.063-.074.063l-1.6-.019-.01.735,1.235.015c.049,0,.079.021.079.064l0,.219c0,.043-.031.061-.081.06l-1.235-.014-.012.872,1.594.019c.049,0,.073.021.072.062l0,.227c0,.043-.025.063-.074.062l-1.9-.022c-.045,0-.067-.021-.066-.064Z" transform="translate(-178.922 -409.468)" fill="#fff"/>
          <path id="Path_45" data-name="Path 45" d="M200.642,410.558a.05.05,0,0,1,.061.05l.294,2.508c.005.044-.017.069-.065.074l-.228.022a.06.06,0,0,1-.074-.058l-.255-2.181-.258.13a.125.125,0,0,1-.036.011c-.024,0-.038-.008-.04-.03l-.028-.221a.073.073,0,0,1,.038-.078l.259-.16a.282.282,0,0,1,.117-.045Z" transform="translate(-186.766 -409.146)" fill="#fff"/>
          <path id="Path_46" data-name="Path 46" d="M206.138,410.884l-.522,1.353a.128.128,0,0,1-.116.1l-.238.04c-.054.009-.08,0-.084-.02a.125.125,0,0,1,.013-.061q.177-.456.237-.616c.036-.1.07-.185.1-.26a.449.449,0,0,1-.146.053.985.985,0,0,1-1.149-.729.912.912,0,0,1,.795-1.05.982.982,0,0,1,1.148.725A.835.835,0,0,1,206.138,410.884Zm-1.046-.863a.554.554,0,0,0-.475.66.61.61,0,0,0,.7.471.57.57,0,0,0,.484-.669A.6.6,0,0,0,205.092,410.021Z" transform="translate(-189.693 -408.511)" fill="#fff"/>
          <path id="Path_47" data-name="Path 47" d="M212.6,407.479a.092.092,0,0,1,.122.059.133.133,0,0,1,0,.067l-.588,2.7a.074.074,0,0,1-.058.057l-.285.074c-.039.01-.063,0-.071-.032a.059.059,0,0,1,0-.035l.532-2.446-1.195.31a.069.069,0,0,1-.09-.046l-.063-.2c-.012-.037.007-.067.051-.079Z" transform="translate(-194.346 -406.92)" fill="#fff"/>
          <path id="Path_48" data-name="Path 48" d="M220.1,406.778l-.232,1.422a.123.123,0,0,1-.092.119l-.227.081c-.051.018-.078.018-.087,0a.12.12,0,0,1,0-.062c.053-.32.087-.535.1-.647s.031-.194.045-.273a.43.43,0,0,1-.133.077,1.02,1.02,0,0,1-1.282-.516.882.882,0,0,1,.562-1.171,1.019,1.019,0,0,1,1.281.512A.842.842,0,0,1,220.1,406.778Zm-1.209-.666a.537.537,0,0,0-.33.732.633.633,0,0,0,.787.34.551.551,0,0,0,.336-.742A.626.626,0,0,0,218.889,406.112Z" transform="translate(-199.378 -405.667)" fill="#fff"/>
        </g>
      </g>
    </g>
  </g>
</svg>
